<svg fill="#F3FCF0" xmlns="http://www.w3.org/2000/svg" xmlns:xlink="http://www.w3.org/1999/xlink" version="1.1" x="0px" y="0px" viewBox="0 0 51 63.75" enable-background="new 0 0 51 51" xml:space="preserve"><g><path d="M11.1919641,49.1357994c0.3110352,0.137207,0.3188477,0.1157227,1.9560547,0.0908203   c25.0111084-0.3775024,23.1815186,0.4748535,25.3745117-0.2802734c3.1707153-1.090332,0.8834229-2.5435791,2.6728516-34.0097656   c0.3212891-5.6411133,0.3706055-6.5083008-1.0273438-7.25c-1.5979004-0.8495483-5.4242554-0.0717773-7.0732422-0.0717773   h-2.8236084c-1.6705322-2.7791748-0.4085083-2.8151245-3.2373657-2.6955566   c0.177002-0.9768066-0.1306763-2.0326538-0.8604126-2.7263184c-0.6538086-0.6206056-1.3710938-0.6210939-2.184082,0.0161133   C22.7969437,3.1423931,22.5752029,4.2886333,22.8745193,5.1145c-0.7199097,0.0936279-1.3560791-0.1369019-1.5223999,0.3914185   l-0.6633301,2.1088867C12.5265589,7.5631084,9.7401209,5.9478741,10.337472,14.4839458   c0.0541992,0.7753906,0.1054688,1.5083008,0.078125,2.1069336C9.6193933,33.919735,9.802743,42.9204674,9.6690149,44.8916588   C9.571847,46.3184166,9.424386,48.4746666,11.1919641,49.1357994z M24.6055374,2.9961529   c0.2192383-0.171875,0.4057617-0.262207,0.5390625-0.262207c0.0678711,0,0.1679688,0.0209961,0.340332,0.184082   c0.5327148,0.5068359,0.7329102,1.3388672,0.5195313,2.0415039c-0.1005859-0.00354-0.4448242-0.0259399-1.9467773,0.1085205   C23.689888,5.0111065,23.4171219,3.9265728,24.6055374,2.9961529z M22.2007523,6.1416607   c1.1589355-0.0426025,5.8701172-0.2427368,6.1411133-0.2666016c0.1994019,0.3963623,0.3758545,1.1969604,0.6323242,1.565918   c0.9726563,1.4018555,1.4511719,2.6928711,1.4580078,2.8886719c-0.0151367,0.0126953-0.1166992,0.074707-0.6367188,0.074707   c-0.0136719,0-3.0029297-0.1313477-4.5180664-0.1313477c-1.4042969,0-2.8574219,0.0473633-4.421875,0.1445313L22.2007523,6.1416607   z M10.6665735,44.9595299c0.1653442-2.4475098-0.0616455-10.7049561,0.7480469-28.322752   c0.0297852-0.6567383-0.0234375-1.4174805-0.0795898-2.2226563c-0.5332031-7.6281738,1.3113403-5.7188721,9.0392447-5.7993164   l-0.6920776,2.2001953c-0.0493164,0.1577148-0.0180664,0.3295898,0.0844727,0.4594727   c0.0952148,0.1206055,0.2402344,0.1904297,0.3925781,0.1904297c0.0117188,0,0.0234375-0.0004883,0.0351563-0.0014648   c1.8232422-0.1279297,3.4863281-0.1904297,5.0830078-0.1904297c1.4267578,0,2.5136719,0.0517578,3.3076172,0.0893555   c0.4960938,0.0234375,0.8930664,0.0419922,1.2104492,0.0419922c0.5297852,0,1.4165039,0,1.6313477-0.9091797   c0.0742798-0.31604-0.1968994-1.0638428-0.6049805-1.8803711c5.331665-0.098999,7.7521973-0.6418457,8.8774414-0.0454102   c0.8085938,0.4296875,0.8032227,0.9389648,0.4980469,6.3105469c-1.7722168,31.1083355,0.2177124,32.3579712-2,33.1210938   c-1.9022827,0.6530762-0.2367554-0.1487427-25.0644531,0.2255859c-1.1743164,0.0180664-1.4633789,0.0200195-1.5380859-0.0058594   l-0.1220703-0.050293C10.5484095,47.8262291,10.5606165,46.5127525,10.6665735,44.9595299z"/><path d="M19.5205765,21.1724224l-0.0297852-3.9838867h-3.869628l0.0297852,3.9838867H19.5205765z M18.4986038,18.1885357   l0.0141602,1.9838867h-1.8696289l-0.0141602-1.9838867H18.4986038z"/><path d="M19.5205765,28.5654888l-0.0297852-3.9838867h-3.869628l0.0297852,3.9838867H19.5205765z M18.4986038,25.5816021   l0.0141602,1.9838867h-1.8696289l-0.0141602-1.9838867H18.4986038z"/><path d="M19.5205765,35.9585533l-0.0297852-3.9838848h-3.869628l0.0297852,3.9838848H19.5205765z M18.4986038,32.9746666   l0.0141602,1.9838867h-1.8696289l-0.0141602-1.9838867H18.4986038z"/><path d="M35.0303421,17.7920513l-0.1044922-0.9941406c-3.3172607,0.3479004-5.6967163,0.2093506-10.2651367,0.0576172l-0.0302734,1   C27.2365189,17.8854961,30.7935257,18.2357769,35.0303421,17.7920513z"/><path d="M35.0303421,22.4517193l-0.1044922-0.9941406c-3.3153687,0.3467407-5.6549683,0.2103271-10.2651367,0.0581055l-0.0302734,1   C27.264534,22.5459576,30.8133621,22.8945904,35.0303421,22.4517193z"/><path d="M35.0303421,27.1113873l-0.1044922-0.9941406c-3.3163452,0.3467407-5.6532593,0.2103882-10.2651367,0.0581055l-0.0302734,1   C27.2771072,27.2058086,30.8013992,27.555479,35.0303421,27.1113873z"/><path d="M35.0303421,31.7715435l-0.1044922-0.9941406c-3.3238525,0.3480835-5.7058716,0.2087402-10.2651367,0.0576172l-0.0302734,1   C27.2365189,31.8649883,30.7935257,32.2152672,35.0303421,31.7715435z"/><path d="M34.7798538,36.4312096l-0.1044922-0.9941406c-3.3301392,0.3486938-5.8627319,0.2078247-10.2651367,0.0576172l-0.0302734,1   C26.8205643,36.5231895,30.5309525,36.876461,34.7798538,36.4312096z"/></g></svg>